<svg xmlns="http://www.w3.org/2000/svg" xmlns:xlink="http://www.w3.org/1999/xlink" width="187.16" height="96" viewBox="0 0 187.16 96"><defs><style>.a{fill:#004691;}.b{fill:#e63027;}.c{fill:#fff;}.d{fill:url(#a);}.e{fill:url(#b);}</style><linearGradient id="a" x1="0.147" y1="0.147" x2="0.854" y2="0.854" gradientUnits="objectBoundingBox"><stop offset="0" stop-color="#fff"/><stop offset="0.056" stop-color="#f3f3f3"/><stop offset="0.521" stop-color="#949494"/><stop offset="0.846" stop-color="#595959"/><stop offset="1" stop-color="#424242"/></linearGradient><radialGradient id="b" cx="0.262" cy="0.259" r="0.527" gradientTransform="translate(0)" gradientUnits="objectBoundingBox"><stop offset="0" stop-color="#fff"/><stop offset="1" stop-color="#e63027"/></radialGradient></defs><g transform="translate(-944.209 -25.742)"><g transform="translate(944.209 25.742)"><g transform="translate(18.035 62.121)"><g transform="translate(6.741 23.846)"><path class="a" d="M995.05,207.35c-.072.059-.022.181.184.146l.135-.219Z" transform="translate(-995.019 -204.722)"/><path class="a" d="M996.978,207.555c.238-.116.509-.311.341-.5-.231.216-.293.135-.54.39-.206.036-.366-.048-.336-.128-.07.059-.325-.029-.429.11a1.1,1.1,0,0,0,.972-.017C997.065,207.456,996.993,207.515,996.978,207.555Z" transform="translate(-995.528 -204.611)"/><path class="a" d="M1039.5,206.752l-.132-.02A.452.452,0,0,0,1039.5,206.752Z" transform="translate(-1017.74 -204.443)"/><path class="a" d="M1065.286,206.111c-.1.008-.134.03-.139.05C1065.236,206.144,1065.308,206.129,1065.286,206.111Z" transform="translate(-1030.951 -204.125)"/><path class="a" d="M1069.717,206.445l-.127-.011A.167.167,0,0,0,1069.717,206.445Z" transform="translate(-1033.227 -204.291)"/><path class="a" d="M1039.634,206.773l.339.054C1039.994,206.756,1039.8,206.782,1039.634,206.773Z" transform="translate(-1017.878 -204.464)"/><path class="a" d="M1003.484,206.725a.634.634,0,0,0-.179.065c.057-.012.113-.023.17-.032A.21.21,0,0,1,1003.484,206.725Z" transform="translate(-999.264 -204.44)"/><path class="a" d="M1028.09,207.6l-.1,0a.537.537,0,0,0-.081.09Z" transform="translate(-1011.87 -204.885)"/><path class="a" d="M1019.514,207.794c.1,0,.121-.177.155-.258a.307.307,0,0,1-.2.133A.231.231,0,0,0,1019.514,207.794Z" transform="translate(-1007.544 -204.855)"/><path class="a" d="M1005.582,208.112l-.118.031Z" transform="translate(-1000.37 -205.15)"/><path class="a" d="M1034.528,207.405a.135.135,0,0,0,.041.063A.091.091,0,0,0,1034.528,207.405Z" transform="translate(-1015.262 -204.788)"/><path class="a" d="M1278.74,206.032a.2.2,0,0,0,0,.032C1278.764,206.047,1278.772,206.035,1278.74,206.032Z" transform="translate(-1140.388 -204.084)"/><path class="a" d="M1288.659,208.4l-.068.006a.458.458,0,0,0-.021.1Z" transform="translate(-1145.426 -205.295)"/><path class="a" d="M1077.843,206.726l-.017,0C1077.723,206.746,1077.781,206.741,1077.843,206.726Z" transform="translate(-1037.419 -204.438)"/><path class="a" d="M1151.7,205.278c-.408-.162.666-.2.051-.384C1151.8,204.964,1151.187,205.172,1151.7,205.278Z" transform="translate(-1075.192 -203.501)"/><path class="a" d="M1003.9,206.749c.057,0,.115-.01.174-.011A.749.749,0,0,0,1003.9,206.749Z" transform="translate(-999.57 -204.446)"/><path class="a" d="M1151.947,204.875h0l-.063-.017Z" transform="translate(-1075.393 -203.482)"/><path class="a" d="M1096.386,206.032a.26.26,0,0,0-.094-.077C1096.3,205.974,1096.316,206,1096.386,206.032Z" transform="translate(-1046.908 -204.045)"/><path class="a" d="M1082.638,205.865l.168.02A.839.839,0,0,0,1082.638,205.865Z" transform="translate(-1039.912 -203.999)"/><path class="a" d="M1103.659,205.454a.513.513,0,0,0,.246.01.157.157,0,0,0-.038-.021A.263.263,0,0,1,1103.659,205.454Z" transform="translate(-1050.682 -203.783)"/><path class="a" d="M1110.945,205.335a.644.644,0,0,0-.068-.035l-.115.011Z" transform="translate(-1054.323 -203.709)"/><path class="a" d="M1256.007,205.1a.581.581,0,0,1,.161.169C1256.117,205.138,1256.655,205.118,1256.007,205.1Z" transform="translate(-1128.742 -203.607)"/><path class="a" d="M1003.664,206.844a.13.13,0,0,1,.1-.083l-.121.016C1003.638,206.8,1003.637,206.83,1003.664,206.844Z" transform="translate(-999.436 -204.458)"/><path class="a" d="M1103.921,202.552l.58.016A5.788,5.788,0,0,0,1103.921,202.552Z" transform="translate(-1050.816 -202.301)"/><path class="a" d="M1202.327,203.32l.133-.018A.23.23,0,0,0,1202.327,203.32Z" transform="translate(-1101.238 -202.684)"/><path class="a" d="M1108.64,202.494a1.031,1.031,0,0,0,.328.12.209.209,0,0,0,.067-.047Z" transform="translate(-1053.235 -202.272)"/><path class="a" d="M1256.339,205.448v0Z" transform="translate(-1128.91 -203.784)"/><path class="a" d="M1128.507,203.452c-.552-.031-.27.219-.394.349-.662.036-.3-.188-.515-.319a8.833,8.833,0,0,1-1.046.222c-.021-.04-.08-.057-.008-.1-.444.168-1.292-.051-1.809.162a.162.162,0,0,1-.064-.062.433.433,0,0,1,.064.328c-.248-.008-.466.128-.552-.031.151.011.167-.05.24-.1l-.262.055c-.224-.233.357-.06.365-.225a6.272,6.272,0,0,1-1.491.125c-.072-.221.909-.031.4-.248l.6.111c-.443-.363.363.041-.042-.345-.786-.1-.887.067-1.672-.028-.182.114.051.181-.132.294-1.128.173-.858-.58-1.692-.323-.219.136-.313.407-.893.239l.209-.237c-.763-.054-.45.335-1.244.139.146-.091.6-.058.489-.091-.511-.214-.372.124-.771.109l-.073-.22c-.815,0-1.718.124-2.62.129.052-.063.209-.125,0-.2a18.368,18.368,0,0,1-3.517-.282l-.425.174c-.1-.005-.178-.09-.071-.123-.425-.085-.026.118-.234.185-.244.005-.318-.118-.162-.169a8.082,8.082,0,0,1-2.947.047l.156-.051c-.616-.1-.709.362-1.278.169l.112-.03a24.078,24.078,0,0,1-3.846-.306c-.2.265-1.326-.154-1.422.221a7,7,0,0,0-1.617-.42c-.288-.025-.435.224-.793.255l0-.2-.489.195-.252-.242-.336.042c.133.015.281.1.26.152a1.961,1.961,0,0,1-1.281-.27l-1.24.136c.03-.078.237-.1.4-.147-.664.184-.115-.211-.724-.041.079.047-.046.116-.062.156a4.153,4.153,0,0,0-1.494-.1l.1-.134c-.916-.051-1.934.031-2.964.01.368.07.279.3-.022.321l-.117-.21c-.2.125.313.084-.09.234-.384-.031-.254-.241-.032-.305l-.468.064c-.027-.062.084-.094.114-.172-.194.126-.8-.223-1.084,0l-.025-.062c-1.029-.02-1.5.043-2.335.039-.019.179-.346.134-.6.275a16.826,16.826,0,0,0-2.039-.205c-.522.084-.154.151-.39.255-.036-.164-.778-.157-.392-.27a19.208,19.208,0,0,0-2.265.141c.121.069.258.1.187.154-.2.025-.464-.074-.434-.152l.054-.016c-1.267.233-2.914-.511-3.924-.176l.056-.017-1.045.174c-.48-.03.289-.122-.066-.225-1.128.269-1.78-.046-2.708.133-.717-.486-2.548.025-3.517-.287l.055.114c-.25.111-.3-.066-.487-.093.026.088.272.1.117.164a63.811,63.811,0,0,1-6.557-.254c-.8-.028-.448.591-1.453.322l.284-.212c-1.6.255-3.284.006-4.854.241.093-.05.1-.113.249-.114-.333-.15-1.227.005-1.232.131-.245-.012-.058-.113-.209-.175-.334-.087-.834.2-1.013.054-.03-.025.093-.051.154-.063-.216.076-1.011-.008-.8.167-.591-.078-1.127.091-1.6-.009-.3.2-1.011-.084-1.1.2.038-.289-1.037-.224-1.408-.078.124-.09-.326-.085-.181-.209-.426.012-.814.072-.738.219-.79-.332-1.572.307-2.02-.129-1.262.177-2.429.3-3.565.392.035-.289,1.256-.051,1.2-.353a13.937,13.937,0,0,1-2.765.346c-.277-.035.155-.128.247-.179-1.075.137-2.084.023-3.04.2,0-.027.1-.058.2-.083-.189.014-.44-.032-.416.1l.183-.04c.307.183-.741.416-.772.517.311-.384-.949-.071-.451-.558-.124.028-.278.094-.248.181-.185-.021-.245-.071-.06-.175-.675.088-.431.221-1.044.234,0-.063.123-.091.185-.167a2.136,2.136,0,0,1-1.135.222c.03-.039-.031-.087.123-.09a14.365,14.365,0,0,1-2.487.272c.281-.283-.335-.083-.393-.32l-.523.086.214.109a7.761,7.761,0,0,1-1.258.132l.338-.109-.86.073.49.075c-.462.138.059.3-.555.254.124-.029-.46.012-.7-.121h0a1.49,1.49,0,0,1-.8.122c-.09-.074.063-.266,0-.315-.219.206-1.075.09-1.353.311a.152.152,0,0,0,.063-.2l-.184.168c-.214-.045-.247-.069-.215-.17-.642-.009.213.3-.552.19.06-.015.03-.038.154-.067-.766-.044-1.472.15-2.176.093-.215-.234.611-.079.367-.274-1.01.074-2.085.356-3.065.34l.183.02c-.123.344-.735-.139-1.224.04.121-.03.152-.195.121-.156a14.2,14.2,0,0,0-2.379.283l.122-.092c-.4-.062-1.042,0-1.47-.027-.123.092-.368.087-.215.208-1.336-.442-2.5.359-3.682,0,.139-.008.33-.092.219-.087l-.99.126c.085.144.134.083.348.189a1.337,1.337,0,0,1-.646.186c.443-.118-.014-.237-.211-.31.035.043-.029.1-.011.141-.531-.238-.074.3-.791.157l.034-.079a3.37,3.37,0,0,1-.79.156c-.126-.165.279-.093.29-.234-.4.028-.778.36-1.149.207.168-.056.414-.067.582-.123a1.382,1.382,0,0,0-.745-.147l.029,0-.685-.06.175.046c-.482.469-1.02.129-1.683.452.645-.306.1-.164.142-.36-.176-.045-.442-.094-.37-.152-.313.171-.54-.1-.981.151-.023-.061-.343.01-.278-.15-.414.068.1.1.073.184-.631.24-1.521-.179-2.429.16-.789.163-.926.381-1.658.525-.255-.086.192-.238.192-.238a2.433,2.433,0,0,0-1.084.055c.074-.059-.007-.1-.127-.164-.3.033-.191.238-.6.167a1.04,1.04,0,0,1,.29-.266c-.355.077-.7.212-1.07.288-.1-.1.214-.177.341-.255-.414.071-1.075.156-1.194.334l.271.047c-.151.016-.086-.143.024-.181.35-.154.519.032.542.094l-.262.054c.291.35,1.058-.116,1.59-.122l-.207.277.533-.249c.12.063.207.207-.054.261.388.111.333-.113.668.016.038.021.022.035-.011.047l.368-.1c-.07.06.072.184-.159.158.676.118,1.067-.256,1.329-.069l-.055.02c.923-.139.08-.2.763-.466l.493.456.081-.2c.1,0,.286.006.255.086.349-.153-.065-.081.135-.218.469.151,1.266-.146,1.385.16.158-.156-.446-.094.04-.22.157.328.566-.083.994.05-.121.178-.524.106-.1.24.239-.3.822.026,1.174-.046.005-.233.767-.132,1.359-.237a13.018,13.018,0,0,0,1.684.134l-.015.04c.1-.239.67-.222,1.084-.29-.01.141-.083.2-.305.274l.391-.02a.838.838,0,0,1,.462-.163l-.091.179a7.221,7.221,0,0,1,1.714-.167c.031-.165-.553-.434.152-.571.03.087.063.237-.121.281a.694.694,0,0,1,.338-.049l-.277.159c.308.054.154-.13.4-.126,0,.126.185.083.153.184-.062.015-.214-.044-.306.009a1.614,1.614,0,0,1,.726.165c-.027-.071-.007-.17.194-.194.52-.03.185.145.491.2.123-.092.458-.015.46-.2.152-.005.184.082.245.131.266-.094,1.258-.073.946-.262l-.069-.011.043-.01h0a22.918,22.918,0,0,1,2.712-.08v.063a9.819,9.819,0,0,0,1.531-.238c.155-.006.369.1.306.179a2.226,2.226,0,0,1,1.022-.053c-.4.123.142.092-.409.1a2.16,2.16,0,0,0,1.195-.057c-.185.168.4.191.643.135l-.368-.1a5.282,5.282,0,0,1,.768-.02l-.126.217c1.072.225,1.9-.5,2.727-.095.277-.158-.581-.086-.334-.268a6.922,6.922,0,0,1,1.163.3c.673.1.615-.331,1.319-.273-.092-.073-.182-.273.34-.361.491.012.611.3.3.37-.117.01-.175-.012-.17-.038-.158.033-.364.072-.168.148l.062-.078c.245.07.919.04.764.17.368-.084.155-.13-.121-.16.631.091.981-.031,1.629.028-.1-.039-.2-.126-.1-.128.95.071.413-.154,1.055-.2.368.107-.123.279.521.166.4.069.089.2-.066.265a3.56,3.56,0,0,1,1.441.087l-.309.069a2.352,2.352,0,0,1,.491-.047l-.18-.147c.182.022.337.019.335.082.185-.1-.15-.249.219-.394.245.071.738-.1.827.1-.766-.049.088.2-.557.249a1.388,1.388,0,0,1,.46-.008c.028.022-.025.042-.074.055.736.161.33-.236,1.089-.25-.094.116.18.211.3.183-.305.005-.151-.186.128-.279.488.076.526-.079.781-.075l-.291-.034c.1-.116.339-.107.677-.151.031.087-.306.068-.184.1.371-.209.854.185,1.375.038.245.071.028.212.242.259.584-.161.639.143,1.255.01-.182-.149-.212-.111.22-.268l-1.013.125.647-.233c-.306,0-.645.107-.829.084.308-.13.277-.091.127-.215.425.221.829-.148,1.318,0l-.008.378c.732.156,1.291-.216,2.239-.138l-.305-.06c.125-.152.584-.031.89-.1-.026.127.166.169.3.245-.018-.093.692,0,.774-.257l.425.158c.765.055.867-.375,1.6-.345-.219.141.116.225-.375.332.245,0,.466.016.469-.072.144.077.677-.182.9-.066.1-.058.134-.19.41-.185.03.025,0,.063,0,.063,0-.063.43-.091.187-.228.761.386,2.112-.051,2.774.28.535-.048,1.18-.1,1.666-.11-.031.038,0,.063-.093.051.671.111.408-.366,1.173-.244.391.2-.4.115-.16.19.109.414.92-.067,1.436.17l-.124.026c.394.137.956-.167,1.6-.145,0,0-.031.037,0,.063a6.526,6.526,0,0,1,1.884-.352c-.192.163-.28.087-.162.252.276-.024-.083-.265.469-.313.18.089.579.165.633.341l-.52.011c.268.227.674-.01.948.029l-.034.1c.8-.035.807-.286,1.665-.271l-.089-.075c.468-.251.394.138.86-.048l.143.252a16.164,16.164,0,0,1,1.636-.3,6.946,6.946,0,0,1-1.364.4,3.433,3.433,0,0,0,1.2-.147.882.882,0,0,1-.4.048,3.132,3.132,0,0,1,1.481-.3c-.108.49,1.592.116,2.035.5a25.786,25.786,0,0,1,3.4.06c-.445-.382.368-.009.292-.4.293-.023.406-.017.431.009l.888.236c.21.115-.279.085-.253.173.642.032.269.166.693.272-.086-.14.224-.2.59-.145l-.514-.182c.9-.2.773.331,1.678.128l-.287.122a6.9,6.9,0,0,0,2.168-.3c.081.046.189.154-.016.18,1.108.059,2.471-.308,3.331-.105l-.085.095c.207-.025.362-.175.62-.077-.014.04-.084.095.011.1a2.072,2.072,0,0,1,.825-.1l-.236.1a10.6,10.6,0,0,0,2.571-.3c-.006.282.844.38,1.267.434l-.015.04a24.011,24.011,0,0,0,3.31-.285c.718.318,2.449.171,3.609.363-.177-.054.033-.219.24-.243.273.062.759-.182.71.076l-.1-.007c.2.258.763.2,1.2.216l.08-.335c1.135.519,3.007-.106,3.621.35.279-.077.621-.068.9-.146l-.019.181a15.927,15.927,0,0,0,2.094.078l-.2.124c.534.025.688-.505,1.182-.5l.141.274a11.226,11.226,0,0,0,2.794.071c-.016.039-.046.117-.2.122.439.021,1.691.237,1.543-.139,0,.242.96.054,1.467-.036l-.084.176a1.917,1.917,0,0,1,1.043-.32c.14.028.118.147-.067.1.466.108.371-.157.936-.044l-.215.107a.923.923,0,0,0,.715-.157c.306-.061.913.074.978.238a.7.7,0,0,1,.62-.163c.036.062-.069.1-.121.113.8.147,1.205-.161,1.752.034a.136.136,0,0,0,.09.11c-.64-.029-1.155-.059-1.106-.07-.006.164.51.213.09.424a4.315,4.315,0,0,1,1.639-.252.238.238,0,0,1,.065.059l-.053.016a.762.762,0,0,0,.319-.014,2.5,2.5,0,0,0,.416.065c.054.138.59.1.847.113-.014-.18.323-.138.011-.3.041.014-.049.02-.221.02a.517.517,0,0,0-.11.014l.018-.015-.641-.013a.871.871,0,0,1,.7-.04,4.436,4.436,0,0,1,.371-.276c.344.264,1.018.426,1.106.584a6.719,6.719,0,0,0,2.365-.312c.226-.035.253.107.334.163a1.589,1.589,0,0,0-.355.063c.45-.069,1.326.019,1.443-.213.56.129-.326.2.45.2l-.108.067c1.508.447,2.5-.487,4.172.075-.115-.035-.174-.052-.2-.092,1.916.306,3.98-.023,5.864.417.536.1.6-.05.938-.147l.107.2.575-.193c.808-.12,1.359.547,2.387.293l-.124-.137c.362.044,1.156-.015,1.087.131a.224.224,0,0,1,.265-.053l.005.1.9-.125c.689.11-.13.395.878.468.377-.019,1.085-.237.948-.312-.151-.013-.384-.083-.389-.185l.346-.034c.079-.294.361-.584-.471-.837l-.6.15-.181-.154.5.018a.689.689,0,0,0-.662.031.378.378,0,0,0-.237-.172l-.593.253c-.063-.12.272-.217-.112-.3-.278.117.245.275-.208.337-.273-.15-.186-.256-.521-.159-.042-.079.03-.124.163-.151-.3.076-.78,0-.94.147-.284-.182-.993-.009-.95-.289a2.146,2.146,0,0,1-.8.191c.511-.311-1.009-.074-.859-.428-.381.283-1.325.064-1.979.2.037-.022.11-.067.167-.048a2.868,2.868,0,0,1-.694-.21c-.059.248-.629.279-.942.419-.434-.262.285-.281.157-.52.012.2-.785.167-.642.343-.334-.165-.29-.086-.456-.3-.074.31-.32.038-.612.218-.487-.177-.114-.3-.66-.229C1128.02,203.541,1128.507,203.452,1128.507,203.452Zm-12.92-.005v0h.267Zm-1.084-.04c.132.012.3.02.47.025.036.063-.008.126-.116.118C1114.917,203.512,1114.663,203.466,1114.5,203.407Zm2.245,1.334c-.172.018-.228-.019-.25-.057.081,0,.176,0,.3-.01a.238.238,0,0,0,.021-.021A.215.215,0,0,1,1116.748,204.742Z" transform="translate(-997.244 -202.038)"/><path class="a" d="M1240.646,207.067a.442.442,0,0,1,.072-.01.927.927,0,0,0-.1-.044l-.063.054Z" transform="translate(-1120.824 -204.587)"/><path class="a" d="M1039.289,206.7l.023,0a.147.147,0,0,1-.049-.023C1039.278,206.692,1039.279,206.7,1039.289,206.7Z" transform="translate(-1017.688 -204.418)"/><path class="a" d="M1204.808,203.221v.045l.1-.037Z" transform="translate(-1102.508 -202.644)"/><path class="a" d="M1026.943,205.931a.142.142,0,0,0-.08-.042C1026.868,205.9,1026.9,205.914,1026.943,205.931Z" transform="translate(-1011.335 -204.011)"/><path class="a" d="M1021.354,206.087l-.367-.047A3.152,3.152,0,0,0,1021.354,206.087Z" transform="translate(-1008.324 -204.089)"/><path class="a" d="M1017.63,206.142a.191.191,0,0,0-.035.078h0Z" transform="translate(-1006.586 -204.141)"/><path class="a" d="M1082.3,203.372a.507.507,0,0,0,.077-.01C1082.556,203.323,1082.435,203.34,1082.3,203.372Z" transform="translate(-1039.74 -202.705)"/><path class="a" d="M1063.081,204.682a2.537,2.537,0,0,1,.3-.095C1063.213,204.579,1063.083,204.58,1063.081,204.682Z" transform="translate(-1029.892 -203.343)"/><path class="a" d="M1103.789,202.549v0h.065Z" transform="translate(-1050.749 -202.3)"/><path class="a" d="M1064.131,204.55a1.058,1.058,0,0,0-.436.011A1.616,1.616,0,0,0,1064.131,204.55Z" transform="translate(-1030.206 -203.316)"/><path class="a" d="M999.937,206.882l-.1,0a.036.036,0,0,1-.01.029Z" transform="translate(-997.484 -204.519)"/><path class="a" d="M999.721,206.94l-.1.027C999.665,206.965,999.707,206.961,999.721,206.94Z" transform="translate(-997.374 -204.55)"/><path class="a" d="M999.164,207.052l.22-.057C999.308,207,999.212,207,999.164,207.052Z" transform="translate(-997.143 -204.578)"/><path class="a" d="M1005.435,206.7l.026-.067A.092.092,0,0,0,1005.435,206.7Z" transform="translate(-1000.356 -204.391)"/><path class="a" d="M1006.259,206.564a2.859,2.859,0,0,0-.747-.059l-.022.053C1005.609,206.455,1006.084,206.684,1006.259,206.564Z" transform="translate(-1000.384 -204.319)"/><path class="a" d="M1013.242,207.912l-.67-.018c.12.063.278.148-.024.181C1013.4,208.238,1012.366,207.928,1013.242,207.912Z" transform="translate(-1004 -205.039)"/><path class="a" d="M1018.062,207.941c-.358.049.009.1-.008.14C1018.278,208.008,1018.333,207.989,1018.062,207.941Z" transform="translate(-1006.744 -205.063)"/><path class="a" d="M1048.878,206.645l-.03.165C1049.123,206.776,1048.848,206.746,1048.878,206.645Z" transform="translate(-1022.599 -204.399)"/><path class="a" d="M1054.3,204.618l-.273-.093-.123.154Z" transform="translate(-1025.191 -203.312)"/><path class="a" d="M1058.138,206.943l-.121.027.46-.074Z" transform="translate(-1027.298 -204.527)"/><path class="a" d="M1109.571,205.5l-.087-.2C1109.3,205.339,1109.262,205.566,1109.571,205.5Z" transform="translate(-1053.594 -203.71)"/><path class="a" d="M1132.071,205.109a.651.651,0,0,0,.612.064A4.642,4.642,0,0,0,1132.071,205.109Z" transform="translate(-1065.24 -203.609)"/><path class="a" d="M1198.594,206.386l-.219.062.412-.046Z" transform="translate(-1099.213 -204.266)"/></g><g transform="translate(0 0)"><path class="b" d="M984.737,189.089a13.187,13.187,0,0,0,.129,1.916,11.286,11.286,0,0,1,.129,1.63,4.217,4.217,0,0,1-.092.788,3.394,3.394,0,0,1-.314.9,2.131,2.131,0,0,1-.591.717,1.519,1.519,0,0,1-.959.286,1.691,1.691,0,0,1-1.089-.448,1.312,1.312,0,0,1-.535-1.021q0-.179.019-.412c.013-.155.031-.317.055-.483q-.036-.61-.037-1.218v-1.218q0-1.862.037-3.743t.037-3.923q0-1.5-.037-3.027t-.037-3.35q0-1.505-.129-2.92t-.129-2.919a1.451,1.451,0,0,1,.277-.968,2.394,2.394,0,0,1,2.619.143,3.907,3.907,0,0,1,.572,1.147c.2-.072.436-.155.72-.251a2.33,2.33,0,0,1,.719-.143h.259a5.388,5.388,0,0,1,1.512.161,5.547,5.547,0,0,1,1.033.448l.111.071a.08.08,0,0,1,.056.018.073.073,0,0,0,.055.019,4.831,4.831,0,0,1,1.311,1,7.255,7.255,0,0,1,1.051,1.433,8.17,8.17,0,0,1,.7,1.648,5.726,5.726,0,0,1,.259,1.648,5.844,5.844,0,0,1-.424,2.077,6.425,6.425,0,0,1-1.273,2.043,6.688,6.688,0,0,1-2.159,1.54,7.235,7.235,0,0,1-3.08.61h-.333a1,1,0,0,1-.369-.072.921.921,0,0,0-.074.413v5.463Zm3.136-9.207a4.047,4.047,0,0,0,1.218-2.974,4.119,4.119,0,0,0-.2-1.272,4.193,4.193,0,0,0-.59-1.164,3.614,3.614,0,0,0-.922-.9,3.012,3.012,0,0,0-1.236-.466l-.48.179a2.555,2.555,0,0,0-.535.269,3.023,3.023,0,0,0-.387.269.285.285,0,0,0-.056.072.194.194,0,0,1-.092.072,1.541,1.541,0,0,0-.073.681q0,.68.055,1.594t.056,1.272v1.218a12.609,12.609,0,0,0,.073,1.433q.073.645.369.645a5.347,5.347,0,0,0,1.015-.09,4.39,4.39,0,0,0,1.052-.376Z" transform="translate(-981.194 -161.443)"/><path class="b" d="M1020.316,183.757q.111.287.221.592a1.718,1.718,0,0,1,.11.591.659.659,0,0,1-.166.466,1.24,1.24,0,0,1-.406.287,2.45,2.45,0,0,1-.5.161,2.386,2.386,0,0,1-.48.054,1.4,1.4,0,0,1-1.217-.806,7.364,7.364,0,0,1-.775-2.006q-.3-1.2-.5-2.543t-.387-2.418a6.229,6.229,0,0,1-.72,1.9,11.659,11.659,0,0,1-1.531,2.2,10.575,10.575,0,0,1-2.029,1.809,3.919,3.919,0,0,1-2.214.752,2.811,2.811,0,0,1-1.457-.341,2.393,2.393,0,0,1-.868-.842,3.348,3.348,0,0,1-.406-1.128,6.738,6.738,0,0,1-.111-1.164,9.158,9.158,0,0,1,.609-2.92,16.325,16.325,0,0,1,1.661-3.385,12.272,12.272,0,0,1,2.435-2.812,4.492,4.492,0,0,1,2.933-1.164,3.117,3.117,0,0,1,.756.107,8.781,8.781,0,0,1,.868.269,5.459,5.459,0,0,1,.849.394,7.735,7.735,0,0,1,.7.448,2.479,2.479,0,0,1,.849,1.361,13.716,13.716,0,0,1,.331,1.792q.258,1.791.406,3.242a21.392,21.392,0,0,0,.554,3.063l.222,1.325Zm-10.406-1.863a.069.069,0,0,0,.018.054.074.074,0,0,1,.018.054,1.979,1.979,0,0,0,1.107-.627,11.649,11.649,0,0,0,1.255-1.416,17.418,17.418,0,0,0,1.162-1.737,10.116,10.116,0,0,0,.793-1.631q.147-.323.35-.716t.406-.806a7.849,7.849,0,0,0,.332-.77,1.854,1.854,0,0,0,.129-.61c-.123-.047-.234-.095-.332-.143a.753.753,0,0,0-.332-.072,2.009,2.009,0,0,0-1.439.61,6.959,6.959,0,0,0-1.088,1.361,10.861,10.861,0,0,0-.757,1.451,8.565,8.565,0,0,1-.406.878,10.714,10.714,0,0,0-.867,1.934,6.257,6.257,0,0,0-.35,2.007Z" transform="translate(-994.357 -162.31)"/><path class="b" d="M1083.865,176.533a1.951,1.951,0,0,1-1.125-.34q-.5-.341-1.052-.663a4.957,4.957,0,0,1-1.882-1.791,5.212,5.212,0,0,1-.664-2.722,7.843,7.843,0,0,1,.276-1.881q.277-1.093.5-2.024a5.213,5.213,0,0,1,.517-1.093,7.849,7.849,0,0,1,1.015-1.361,7.178,7.178,0,0,1,1.383-1.164,2.891,2.891,0,0,1,1.587-.5,1.213,1.213,0,0,1,.664.215,6.4,6.4,0,0,0,1.07.537q.553.214,1.125.43t1.126.466a4.687,4.687,0,0,1,1.033.644,2.217,2.217,0,0,1,.627.788q.221.467.443.9a2.042,2.042,0,0,1,.222.735c.024.251.036.508.036.77v.681a5.45,5.45,0,0,1-.461,2.06,12.983,12.983,0,0,1-1.015,1.845q-.3.466-.775,1.075a9.491,9.491,0,0,1-1.07,1.147,7.349,7.349,0,0,1-1.236.913,2.578,2.578,0,0,1-1.31.376c-.123,0-.253-.006-.387-.018s-.277-.018-.424-.018Zm3.616-8.563a1.621,1.621,0,0,0-.775-1.5,3.232,3.232,0,0,0-1.7-.466,1.651,1.651,0,0,0-1.255.555,5.049,5.049,0,0,0-.885,1.361,7.184,7.184,0,0,0-.535,1.719,9.135,9.135,0,0,0-.166,1.595,5.561,5.561,0,0,0,.056.573,5.062,5.062,0,0,0,.2.9,2.626,2.626,0,0,0,.424.824.866.866,0,0,0,.719.358,2.069,2.069,0,0,0,.739-.125q.332-.125.738-.3a3.545,3.545,0,0,0,1.033-.967,5.8,5.8,0,0,0,.72-1.326,9.733,9.733,0,0,0,.443-1.5,14.626,14.626,0,0,0,.24-1.5Zm-1.9-6.537a1.021,1.021,0,0,1-.271-.048.673.673,0,0,1-.486-.585,1.013,1.013,0,0,1,.182-.509c.638-1.093,1.363-2.131,2.04-3.2.416-.657.932-1.83,1.856-1.83a1.073,1.073,0,0,1,.941.448c.729,1.038-.039,2.437-.715,3.3a6.457,6.457,0,0,1-3.017,2.356A1.864,1.864,0,0,1,1085.581,161.434Z" transform="translate(-1031.379 -154.225)"/><path class="b" d="M1111.1,179.39a3.672,3.672,0,0,0,.831-1.29q.313-.787.609-1.5l.073-.215a14.24,14.24,0,0,1,.664-1.415,11.216,11.216,0,0,1,1.033-1.612,7,7,0,0,1,1.291-1.308,2.348,2.348,0,0,1,1.44-.537,1.79,1.79,0,0,1,.941.573,2.922,2.922,0,0,1,.479.878q.166.484.3,1a5.253,5.253,0,0,0,.35.985,10.057,10.057,0,0,1,.721,2.222q.239,1.182.405,2.4t.388,2.4a9.88,9.88,0,0,0,.664,2.185,1.043,1.043,0,0,1-.646.842,2.445,2.445,0,0,1-1.015.269,1.225,1.225,0,0,1-1.034-.483,3.578,3.578,0,0,1-.572-1.183,9.242,9.242,0,0,1-.3-1.451,8,8,0,0,0-.24-1.254,9.327,9.327,0,0,1-.3-1.379q-.111-.77-.258-1.558a14.611,14.611,0,0,0-.35-1.469,3,3,0,0,0-.572-1.111,14.494,14.494,0,0,0-1.016,1.809q-.387.843-.7,1.612t-.609,1.5a14.314,14.314,0,0,1-1.808,3.1,4.391,4.391,0,0,1-.886.842,1.939,1.939,0,0,1-.775.323,4.9,4.9,0,0,1-.7.053,1.735,1.735,0,0,1-.9-.358,1.028,1.028,0,0,1-.536-.86q0-2.257.019-4.191t.019-4.084q0-.609-.037-1.236t-.037-1.236a2.226,2.226,0,0,1,.167-.842,1.052,1.052,0,0,1,.572-.591c.147,0,.3-.006.443-.019s.282-.018.406-.018a1.037,1.037,0,0,1,.756.269,1.594,1.594,0,0,1,.406.663,3.67,3.67,0,0,1,.166.824q.037.43.037.716a2.977,2.977,0,0,0,.092.752,3.04,3.04,0,0,1,.092.752q0,1.325-.037,2.257t-.036,1.791Z" transform="translate(-1046.187 -162.385)"/><path class="b" d="M1159.574,154.343a1.7,1.7,0,0,1,.1-.836c.148-.257.56-.31.835-.349a1.756,1.756,0,0,1,1.718.645c.641.889.426,2.19.391,3.209a17.69,17.69,0,0,0-.018,3.373c.034.209,3.411-.725,3.663-.725a.882.882,0,0,1,.728.558c.5,1.067-.248,1.88-1.24,2.165-1.081.31-2.342.417-3.188,1.239a.955.955,0,0,0-.3.717,37.789,37.789,0,0,0,.24,5.177q.24,1.738.535,3.35a10.859,10.859,0,0,1,.406,1.934,1.508,1.508,0,0,1-2.454,1.021,3.058,3.058,0,0,1-.719-.842,6.156,6.156,0,0,1-.48-2.855c-.051-1.192-.122-2.383-.148-3.576q-.037-1.737-.073-3.493a1.849,1.849,0,0,0-.019-.269.909.909,0,0,0-.092-.269,4.032,4.032,0,0,0-1.107.323,3.334,3.334,0,0,1-3.075-.273c-.361-.244-.433-.555-.68-.872-.6-.767.87-1.222,1.366-1.372.637-.192,1.29-.323,1.931-.5.45-.125,1.645-.306,1.692-.893.029-.363.013-.7.018-1.063.01-.625-.007-1.251-.013-1.875C1159.587,156.775,1159.574,155.559,1159.574,154.343Z" transform="translate(-1069.971 -153.137)"/><path class="b" d="M1180.239,178.38a10.52,10.52,0,0,1,.351-2.669,8.158,8.158,0,0,1,1.052-2.419,5.785,5.785,0,0,1,1.734-1.737,4.347,4.347,0,0,1,2.4-.663,4.5,4.5,0,0,1,1.678.287,3.653,3.653,0,0,1,1.2.751,3.1,3.1,0,0,1,.719,1.057,3.261,3.261,0,0,1,.24,1.236,4.2,4.2,0,0,1-.313,1.594,4.29,4.29,0,0,1-.9,1.379,4.485,4.485,0,0,1-1.458.985,5.35,5.35,0,0,1-1.974.412,3.179,3.179,0,0,1-.849-.036q-.369-.071-.849-.215a1.537,1.537,0,0,0-.037.3v.2a4.692,4.692,0,0,0,.443,2.078,3.553,3.553,0,0,0,.886,1.128,2.472,2.472,0,0,0,.923.483,3.142,3.142,0,0,0,.59.108,3.367,3.367,0,0,0,1.9-.5q.756-.5,1.679-1.11l.406.161a.975.975,0,0,1,.406.34,3.09,3.09,0,0,0,.073.34,1.429,1.429,0,0,1,.037.376,1.642,1.642,0,0,1-.277.842,3.127,3.127,0,0,1-.535.591,5.079,5.079,0,0,1-1.79,1.021,8.219,8.219,0,0,1-2.158.233,5.44,5.44,0,0,1-1.458-.251,9.3,9.3,0,0,1-1.458-.537,6.758,6.758,0,0,1-1.383-1.289,5.431,5.431,0,0,1-.776-1.361,6.094,6.094,0,0,1-.369-1.487Q1180.275,179.24,1180.239,178.38Zm3.211-1.934a2.787,2.787,0,0,0,.461.054c.209.012.375.018.5.018a2.812,2.812,0,0,0,1.938-.609,1.9,1.9,0,0,0,.682-1.469,1.615,1.615,0,0,0-.295-.932.934.934,0,0,0-.811-.43,3.622,3.622,0,0,0-.72.071.8.8,0,0,0-.535.358,4.376,4.376,0,0,1-.332.359,1.921,1.921,0,0,0-.35.5,4.887,4.887,0,0,0-.314.806A6.574,6.574,0,0,0,1183.449,176.445Z" transform="translate(-1083.18 -162.234)"/><path class="b" d="M1211.419,182.323a4.208,4.208,0,0,0,2.591-1.023.945.945,0,0,1,.308-.215.538.538,0,0,1,.5.118.942.942,0,0,1,.169,1.1c-.875,1.888-3.27,2.55-5.185,2.217a7.216,7.216,0,0,1-4.914-3.8c-2.148-4,.133-9.237,4.9-9.5a2.52,2.52,0,0,1,1.308.21,1.17,1.17,0,0,1,.668,1.073,1.337,1.337,0,0,1-.89,1.021c-.439.182-.921.231-1.373.372C1205.321,175.2,1207.34,182.489,1211.419,182.323Z" transform="translate(-1095.394 -162.397)"/><path class="b" d="M1233.175,179.39a3.664,3.664,0,0,0,.831-1.29q.312-.787.609-1.5l.074-.215a14.18,14.18,0,0,1,.664-1.415,11.2,11.2,0,0,1,1.033-1.612,6.988,6.988,0,0,1,1.291-1.308,2.345,2.345,0,0,1,1.439-.537,1.791,1.791,0,0,1,.941.573,2.929,2.929,0,0,1,.48.878c.111.322.208.657.295,1a5.186,5.186,0,0,0,.351.985,10.024,10.024,0,0,1,.72,2.222q.24,1.182.406,2.4t.387,2.4a9.893,9.893,0,0,0,.664,2.185,1.044,1.044,0,0,1-.646.842,2.442,2.442,0,0,1-1.015.269,1.225,1.225,0,0,1-1.034-.483,3.568,3.568,0,0,1-.572-1.183,9.174,9.174,0,0,1-.3-1.451,8.092,8.092,0,0,0-.239-1.254,9.31,9.31,0,0,1-.3-1.379q-.111-.77-.258-1.558a14.673,14.673,0,0,0-.351-1.469,3,3,0,0,0-.572-1.111,14.551,14.551,0,0,0-1.015,1.809q-.387.843-.7,1.612t-.609,1.5a14.328,14.328,0,0,1-1.808,3.1,4.391,4.391,0,0,1-.885.842,1.938,1.938,0,0,1-.775.323,4.907,4.907,0,0,1-.7.053,1.737,1.737,0,0,1-.9-.358,1.027,1.027,0,0,1-.535-.86q0-2.257.019-4.191t.018-4.084q0-.609-.037-1.236t-.037-1.236a2.236,2.236,0,0,1,.167-.842,1.055,1.055,0,0,1,.572-.591c.148,0,.3-.006.443-.019s.282-.018.406-.018a1.04,1.04,0,0,1,.756.269,1.6,1.6,0,0,1,.406.663,3.663,3.663,0,0,1,.166.824c.024.287.037.526.037.716a3,3,0,0,0,.092.752,3.04,3.04,0,0,1,.092.752q0,1.325-.036,2.257t-.037,1.791Z" transform="translate(-1108.732 -162.385)"/><path class="b" d="M1264.651,184.655a1.951,1.951,0,0,1-1.125-.34q-.5-.341-1.051-.663a4.956,4.956,0,0,1-1.882-1.791,5.219,5.219,0,0,1-.664-2.722,7.872,7.872,0,0,1,.276-1.881q.277-1.093.5-2.024a5.179,5.179,0,0,1,.517-1.093,7.872,7.872,0,0,1,1.015-1.361,7.151,7.151,0,0,1,1.384-1.164,2.889,2.889,0,0,1,1.587-.5,1.214,1.214,0,0,1,.664.215,6.371,6.371,0,0,0,1.07.537q.553.214,1.125.43t1.126.466a4.648,4.648,0,0,1,1.033.644,2.218,2.218,0,0,1,.628.788q.222.467.443.9a2.044,2.044,0,0,1,.222.735c.024.251.037.508.037.77v.681a5.463,5.463,0,0,1-.462,2.06,13.017,13.017,0,0,1-1.014,1.845q-.3.466-.775,1.075a9.511,9.511,0,0,1-1.071,1.147,7.3,7.3,0,0,1-1.236.913,2.576,2.576,0,0,1-1.31.376c-.124,0-.252-.006-.387-.018s-.277-.018-.424-.018Zm3.616-8.563a1.623,1.623,0,0,0-.775-1.5,3.232,3.232,0,0,0-1.7-.466,1.652,1.652,0,0,0-1.255.555,5.063,5.063,0,0,0-.885,1.361,7.206,7.206,0,0,0-.535,1.719,9.111,9.111,0,0,0-.166,1.595,5.569,5.569,0,0,0,.056.573,5.141,5.141,0,0,0,.2.9,2.638,2.638,0,0,0,.424.824.867.867,0,0,0,.719.358,2.074,2.074,0,0,0,.739-.125q.331-.125.737-.3a3.554,3.554,0,0,0,1.033-.967,5.772,5.772,0,0,0,.719-1.326,9.708,9.708,0,0,0,.443-1.5,14.765,14.765,0,0,0,.24-1.5Z" transform="translate(-1124.01 -162.347)"/></g><path class="b" d="M1041.779,183.964a3.932,3.932,0,0,1-3.14-.988c-.82-.972-.814-3.658,1.028-2.874a10.013,10.013,0,0,0,3.714.879,3.892,3.892,0,0,0,2.836-1.066.319.319,0,0,0,.071-.349c-.431-1.06-2.055-1.04-3-1.192a18.036,18.036,0,0,1-3.282-.821,4.347,4.347,0,0,1-2.595-1.695,3.963,3.963,0,0,1,1.595-4.924c1.9-1.291,5.377-2.23,7.107-.089.695.86-.144,2.546-1.318,2.289.211-.268-.006-.7-.325-.819-.875-.338-2.333.189-3.124.551-.39.179-.956.461-1.07.923-.276,1.115,1.76,1.521,2.457,1.751,1.279.422,2.633.589,3.9,1a5.906,5.906,0,0,1,2.976,1.613c1.029,1.276.2,2.918-.814,3.9a6.018,6.018,0,0,1-2.543,1.541A19.548,19.548,0,0,1,1041.779,183.964Z" transform="translate(-1009.816 -161.559)"/><path class="b" d="M1069.051,178.363a.915.915,0,0,1-.53-.39,2.389,2.389,0,0,1-.3-.926,66.308,66.308,0,0,1-.548-7.972c-.021-1.1-.39-2.925.143-3.948a1.476,1.476,0,0,1,1.958-.492c.9.469.7,1.186.676,1.986-.032,1.206.234,2.382.27,3.581C1070.749,171.354,1072.3,179.238,1069.051,178.363Zm.2-16.491a2.347,2.347,0,0,1-.308-.022,1.7,1.7,0,0,1-1.09-.369.692.692,0,0,1-.258-.538,1.222,1.222,0,0,1,.568-.961,1.948,1.948,0,0,1,1.188-.375c.09,0,.182,0,.273.012a1.838,1.838,0,0,1,1.1.282.691.691,0,0,1,.318.6,1.161,1.161,0,0,1-.481.9A1.9,1.9,0,0,1,1069.251,161.872Z" transform="translate(-1025.428 -156.451)"/></g><g transform="translate(0)"><path class="a" d="M1124.928,25.742H950.651c-3.558,0-6.442,3.191-6.442,7.136v49.37c0,3.944,2.883,6.988,6.438,6.812q87.1-4.237,174.284,0c3.556.179,6.438-2.866,6.438-6.812V32.878c0-3.947-2.883-7.139-6.441-7.136Z" transform="translate(-944.209 -25.742)"/><g transform="translate(12.107 16.728)"><path class="c" d="M1097.012,85.23q-3.459.013-6.919.036-.839-2.167-1.678-4.337a18.934,18.934,0,0,0-1.664-3.482,3.723,3.723,0,0,0-1.44-1.406,4.5,4.5,0,0,0-1.81-.3l-.724.005q0,4.788,0,9.576-3.22.031-6.44.07,0-12.29,0-24.581,5.478-.02,10.954-.035a6.957,6.957,0,0,1,6.787,4.225,8.585,8.585,0,0,1,.747,3.353,7.135,7.135,0,0,1-.625,3.136,5.672,5.672,0,0,1-1.318,1.867,12.972,12.972,0,0,1-1.556,1.119,6.414,6.414,0,0,1,1.7,1.627,21.37,21.37,0,0,1,1.825,3.816Zm-8.75-16.709a2.669,2.669,0,0,0-.971-2.365,5.672,5.672,0,0,0-3.158-.66l-1.355.006q0,2.957,0,5.912l1.387-.008a6.2,6.2,0,0,0,3.227-.609A2.577,2.577,0,0,0,1088.262,68.521Z" transform="translate(-1024.013 -60.423)"/><path class="c" d="M1143.353,72.62a14.369,14.369,0,0,1-1.378,6.3,10.7,10.7,0,0,1-4.107,4.557,12.374,12.374,0,0,1-6.641,1.678,12.166,12.166,0,0,1-6.7-1.763,10.835,10.835,0,0,1-4.075-4.632,14.958,14.958,0,0,1-.007-12.328,10.761,10.761,0,0,1,4.075-4.629,12.22,12.22,0,0,1,6.71-1.755,13.146,13.146,0,0,1,5.277,1.009,10.477,10.477,0,0,1,3.813,2.733,11.831,11.831,0,0,1,2.266,4.015A15.033,15.033,0,0,1,1143.353,72.62Zm-6.564-.02a8.466,8.466,0,0,0-.355-2.516,5.545,5.545,0,0,0-1.07-1.979,4.992,4.992,0,0,0-1.749-1.308,5.737,5.737,0,0,0-2.388-.469,5.064,5.064,0,0,0-4.067,1.727,7.688,7.688,0,0,0,.008,9.079,5.065,5.065,0,0,0,4.06,1.738,5.453,5.453,0,0,0,3.019-.8,5.066,5.066,0,0,0,1.9-2.22A7.784,7.784,0,0,0,1136.789,72.6Z" transform="translate(-1045.934 -60.046)"/><path class="c" d="M1198.153,85.548q-2.865-.048-5.732-.088-5.54-6.939-11.08-13.8,0,6.833,0,13.666-3.189-.031-6.378-.054l0-24.5,5.715.015q5.524,6.813,11.049,13.682,0-6.82,0-13.642,3.211.015,6.424.031Q1198.151,73.2,1198.153,85.548Z" transform="translate(-1074.547 -60.419)"/><path class="c" d="M1238.74,85.878q-3.22-.068-6.44-.128,0-12.372-.006-24.745,3.221.019,6.441.04Q1238.737,73.462,1238.74,85.878Z" transform="translate(-1103.924 -60.537)"/><path class="c" d="M1277.135,86.164c-2.757-.09-5.4-.065-8.157-.146-.755-1.076-4.712-7.25-4.979-7.677-1.233,1.928-4.414,6.755-5.066,7.677-2.716-.069-5.341-.054-8.057-.113,3.018-4.245,5.595-7.828,8.481-12.366-3.556-5.166-5.727-8.484-8.5-12.5,2.743.02,5.27.039,8.013.061.487.7,3.662,5.663,5.128,7.342,2.1-2.88,4.445-6.694,5-7.482q4.036.037,8.071.078c-2.767,4.024-5.751,8.523-8.518,12.5C1271.295,78.015,1274.028,81.3,1277.135,86.164Z" transform="translate(-1113.433 -60.516)"/><path class="c" d="M993.447,90.666l-8.039.208-9.517-13.181-.033,9.934-6.82.177.142-26.552,6.727-.215-.027,9.98,6.22-9.8,7.641-.137-8.088,12.68Z" transform="translate(-969.038 -60.553)"/><path class="c" d="M1025.707,61q0,3.024,0,6.048c1-.011,7.021-.07,7.826-.077q0,9.37,0,18.741,3.213-.061,6.424-.114,0-9.341,0-18.682,3.913-.031,7.827-.056,0-2.992,0-5.983C1042.227,60.9,1026.7,60.989,1025.707,61Z" transform="translate(-998.073 -60.47)"/><g transform="translate(21.229 10.141)"><path class="d" d="M1016.059,87.146a3.16,3.16,0,1,1,2.817-2.819A3.163,3.163,0,0,1,1016.059,87.146Zm-.671-5.776a2.656,2.656,0,1,0,2.979,2.979A2.671,2.671,0,0,0,1015.388,81.37Z" transform="translate(-1012.574 -80.843)"/><path class="e" d="M1016,81.36a2.907,2.907,0,1,1-2.913,2.913A2.912,2.912,0,0,1,1016,81.36Z" transform="translate(-1012.839 -81.108)"/></g></g></g></g></g></svg>